<svg width="1044" height="1044" viewBox="0 0 1044 1044" fill="none" xmlns="http://www.w3.org/2000/svg">
  <defs>
    <filter id="glow" x="-50%" y="-50%" width="200%" height="200%">
      <feGaussianBlur in="SourceGraphic" stdDeviation="20" result="blur" />
      <feFlood flood-color="#0998A0" result="glowColor" />
      <feComposite in="glowColor" in2="blur" operator="in" result="glow" />
      <feMerge>
        <feMergeNode in="glow" />
        <feMergeNode in="SourceGraphic" />
      </feMerge>
    </filter>
  </defs>
  
  <g clip-path="url(#clip0_1_2)">
    <path d="M277.155 660.975L277.407 569.993L422.155 569.975L421.905 660.957L277.155 660.975Z" stroke="#0998A0" stroke-width="12" filter="url(#glow)" />
    <path d="M422.9 454.954L277.17 454.974L277.412 355.996L350.292 355.986L423.14 355.976L422.9 454.954Z" stroke="#0998A0" stroke-width="12" filter="url(#glow)" />
    <path d="M618.461 212.892C698.615 212.845 763.924 276.196 767.023 355.576L277.628 355.859L277.711 213.091L618.461 212.892Z" stroke="#0998A0" stroke-width="12" filter="url(#glow)" />
    <path d="M766.15 384.978L765.894 685.914L623.16 685.973L623.417 385.036L766.15 384.978Z" stroke="#0998A0" stroke-width="12" filter="url(#glow)" />
    <path d="M425.661 829.329C345.508 829.376 280.2 766.028 277.102 686.647L766.016 686.361L765.934 829.13L425.661 829.329Z" stroke="#0998A0" stroke-width="12" filter="url(#glow)" />
    <path d="M277.158 569.971L277.216 455.172L568.152 454.979L568.131 496.518C568.108 537.75 538.99 569.794 504.709 569.817L277.158 569.971Z" stroke="#0998A0" stroke-width="12" filter="url(#glow)" />
  </g>
  
  <defs>
  </defs>
</svg>
